<?xml version="1.0" encoding="UTF-8" standalone="no"?>
<svg
   viewBox="0 0 64 64"
   version="1.1"
   id="svg2"
   sodipodi:docname="deck block layout.svg"
   inkscape:version="1.1 (c68e22c387, 2021-05-23)"
   inkscape:export-filename="F:\Folder for Things\Folder for Things\Games and Flashes\pleasure-station-sim\Documentation\deck block layout.png"
   inkscape:export-xdpi="426.18573"
   inkscape:export-ydpi="426.18573"
   xmlns:inkscape="http://www.inkscape.org/namespaces/inkscape"
   xmlns:sodipodi="http://sodipodi.sourceforge.net/DTD/sodipodi-0.dtd"
   xmlns="http://www.w3.org/2000/svg"
   xmlns:svg="http://www.w3.org/2000/svg">
  <defs
     id="defs6" />
  <sodipodi:namedview
     id="namedview4"
     pagecolor="#ffffff"
     bordercolor="#666666"
     borderopacity="1.0"
     inkscape:pageshadow="2"
     inkscape:pageopacity="0.0"
     inkscape:pagecheckerboard="0"
     showgrid="false"
     inkscape:snap-midpoints="true"
     inkscape:zoom="11.765625"
     inkscape:cx="32"
     inkscape:cy="31.830013"
     inkscape:window-width="1920"
     inkscape:window-height="1017"
     inkscape:window-x="-8"
     inkscape:window-y="-8"
     inkscape:window-maximized="1"
     inkscape:current-layer="svg2" />
  <g
     id="g2386"
     style="fill:#ff8080">
    <path
       id="path1569"
       style="fill:#ff8080;stroke:#000000;stroke-width:0.499999;stroke-linejoin:round;stop-color:#000000"
       d="M 16.248047,16.248047 A 22.275148,22.275148 0 0 0 9.7246094,32 H 32 Z" />
    <path
       id="path2160"
       style="fill:#ff8080;stroke:#000000;stroke-width:0.499999;stroke-linejoin:round;stop-color:#000000"
       d="M 16.248047,16.248047 32,32 V 9.7246094 A 22.275148,22.275148 0 0 0 16.248047,16.248047 Z" />
    <path
       id="path1569-4"
       style="fill:#ff8080;stroke:#000000;stroke-width:0.499999;stroke-linejoin:round;stop-color:#000000"
       d="M 16.248047,47.751953 A 22.275148,22.275148 0 0 0 32,54.275391 V 32 Z" />
    <path
       id="path2160-0"
       style="fill:#ff8080;stroke:#000000;stroke-width:0.499999;stroke-linejoin:round;stop-color:#000000"
       d="M 16.248047,47.751953 32,32 H 9.7246094 a 22.275148,22.275148 0 0 0 6.5234376,15.751953 z" />
    <path
       id="path1569-4-3"
       style="fill:#ff8080;stroke:#000000;stroke-width:0.499999;stroke-linejoin:round;stop-color:#000000"
       d="M 47.751953,47.751953 A -22.275148,-22.275148 0 0 0 54.275391,32 H 32 Z" />
    <path
       id="path2160-0-2"
       style="fill:#ff8080;stroke:#000000;stroke-width:0.499999;stroke-linejoin:round;stop-color:#000000"
       d="M 47.751953,47.751953 32,32 v 22.275391 a -22.275148,-22.275148 0 0 0 15.751953,-6.523438 z" />
    <path
       id="path1569-4-3-3"
       style="fill:#ff8080;stroke:#000000;stroke-width:0.499999;stroke-linejoin:round;stop-color:#000000"
       d="M 47.751953,16.248047 A 22.275148,22.275148 0 0 0 32,9.7246094 V 32 Z" />
    <path
       id="path2160-0-2-0"
       style="fill:#ff8080;stroke:#000000;stroke-width:0.499999;stroke-linejoin:round;stop-color:#000000"
       d="M 47.751953,16.248047 32,32 H 54.275391 A 22.275148,22.275148 0 0 0 47.751953,16.248047 Z" />
  </g>
  <circle
     style="fill:#ff8080;stroke:#000000;stroke-width:0.5;stroke-linejoin:round;stop-color:#000000"
     id="path842"
     cx="32"
     cy="32"
     r="12.621513" />
  <path
     id="path842-9-9"
     style="fill:#ffdd55;stroke:#000000;stroke-width:0.499999;stroke-linejoin:round;stop-color:#000000"
     d="M 31.998047 18.089844 A 13.908664 13.908664 0 0 0 18.091797 32.001953 A 13.908664 13.908664 0 0 0 31.998047 45.910156 A 13.908664 13.908664 0 0 0 45.908203 32.001953 A 13.908664 13.908664 0 0 0 31.998047 18.089844 z M 31.998047 19.378906 A 12.621513 12.621513 0 0 1 40.490234 22.662109 L 33.873047 29.279297 L 30.126953 29.279297 L 23.533203 22.685547 A 12.621513 12.621513 0 0 1 31.998047 19.378906 z M 41.337891 23.509766 A 12.621513 12.621513 0 0 1 44.621094 32.001953 A 12.621513 12.621513 0 0 1 41.314453 40.466797 L 34.720703 33.873047 L 34.720703 30.126953 L 41.337891 23.509766 z M 22.683594 23.53125 L 29.279297 30.126953 L 29.279297 33.873047 L 22.683594 40.46875 A 12.621513 12.621513 0 0 1 19.378906 32.001953 A 12.621513 12.621513 0 0 1 22.683594 23.53125 z M 30.126953 34.720703 L 33.873047 34.720703 L 40.46875 41.316406 A 12.621513 12.621513 0 0 1 31.998047 44.623047 A 12.621513 12.621513 0 0 1 23.53125 41.316406 L 30.126953 34.720703 z " />
  <rect
     style="fill:#3dff8f;stroke:#000000;stroke-width:0.5;stroke-linejoin:round;stop-color:#000000;fill-opacity:1"
     id="rect2410"
     width="3.0172644"
     height="3.0172644"
     x="30.491367"
     y="30.491367" />
</svg>
